@startuml
title Hierarquia de java.util.LinkedList - Java 21

interface Iterable<E>
interface Collection<E>
interface List<E>
interface Queue<E>
interface Deque<E>

class LinkedList<E>

Iterable <|-- Collection
Collection <|-- List
Collection <|-- Queue
Queue <|-- Deque

List <|.. LinkedList
Deque <|.. LinkedList

@enduml
