@startuml
title Hierarquia de java.util.LinkedHashMap - Java 21

skinparam classAttributeIconSize 0

interface Map<K, V>
interface SequencedMap<K, V>
interface Cloneable
interface Serializable

abstract class AbstractMap<K, V>
class HashMap<K, V>
class LinkedHashMap<K, V>

Map <|-- SequencedMap
Map <|.. AbstractMap

AbstractMap <|-- HashMap
Map <|.. HashMap
HashMap <|-- LinkedHashMap
SequencedMap <|.. LinkedHashMap
Cloneable <|.. LinkedHashMap
Serializable <|.. LinkedHashMap

@enduml
